<?xml version="1.0" encoding="UTF-8" standalone="no"?>
<!DOCTYPE svg PUBLIC "-//W3C//DTD SVG 1.1//EN" "http://www.w3.org/Graphics/SVG/1.1/DTD/svg11.dtd">
<svg width="100%" height="100%" viewBox="0 0 198 198" version="1.1" xmlns="http://www.w3.org/2000/svg" xmlns:xlink="http://www.w3.org/1999/xlink" xml:space="preserve" xmlns:serif="http://www.serif.com/" style="fill-rule:evenodd;clip-rule:evenodd;stroke-linecap:round;stroke-linejoin:round;stroke-miterlimit:1.5;">
    <g transform="matrix(1,0,0,1,-4262.87,-938.671)">
        <g>
            <path d="M4459.37,988.588C4459.37,961.622 4437.48,939.729 4410.51,939.729L4312.79,939.729C4285.83,939.729 4263.93,961.622 4263.93,988.588L4263.93,1086.31C4263.93,1113.27 4285.83,1135.17 4312.79,1135.17L4410.51,1135.17C4437.48,1135.17 4459.37,1113.27 4459.37,1086.31L4459.37,988.588Z" style="fill:white;stroke:rgb(0,0,125);stroke-width:2.12px;"/>
            <g transform="matrix(0.799573,0,0,0.799573,1229.46,492.683)">
                <g transform="matrix(0.0772608,0,0,0.0772608,3788.11,581.832)">
                    <path d="M1612.82,654.189C1612.82,796.131 1497.58,911.371 1355.64,911.371C1280.84,911.371 1211.11,933.24 1152.5,970.928C1106.98,1000.2 1068.17,1039.01 1038.9,1084.53C1001.21,1143.14 979.341,1212.87 979.341,1287.67C979.341,1362.46 1001.21,1432.19 1038.9,1490.8C1068.17,1536.32 1106.98,1575.14 1152.5,1604.41C1211.11,1642.1 1280.84,1663.97 1355.64,1663.97C1430.43,1663.97 1500.16,1642.1 1558.77,1604.41C1604.29,1575.14 1643.11,1536.32 1672.38,1490.8C1710.07,1432.19 1731.93,1362.46 1731.93,1287.67C1731.93,1145.73 1847.17,1030.49 1989.12,1030.49C2131.06,1030.49 2246.3,1145.73 2246.3,1287.67C2246.3,1429.61 2131.06,1544.85 1989.12,1544.85C1914.32,1544.85 1844.59,1566.72 1785.98,1604.41C1740.46,1633.68 1701.65,1672.49 1672.38,1718.01C1634.69,1776.62 1612.82,1846.35 1612.82,1921.15C1612.82,2063.09 1497.58,2178.33 1355.64,2178.33C1213.69,2178.33 1098.46,2063.09 1098.46,1921.15C1098.46,1846.35 1076.59,1776.62 1038.9,1718.01C1009.63,1672.49 970.814,1633.68 925.293,1604.41C866.683,1566.72 796.955,1544.85 722.159,1544.85C580.217,1544.85 464.977,1429.61 464.977,1287.67C464.977,1145.73 580.217,1030.49 722.159,1030.49C796.955,1030.49 866.683,1008.62 925.293,970.928C970.814,941.657 1009.63,902.844 1038.9,857.323C1076.59,798.713 1098.46,728.985 1098.46,654.189C1098.46,512.247 1213.69,397.007 1355.64,397.007C1497.58,397.007 1612.82,512.247 1612.82,654.189Z" style="fill:rgb(0,41,102);"/>
                </g>
                <g transform="matrix(0.0772608,0,0,0.0772608,3788.11,581.832)">
                    <path d="M1731.93,654.189C1731.93,512.247 1847.17,397.007 1989.12,397.007C2131.06,397.007 2246.3,512.247 2246.3,654.189C2246.3,728.985 2268.17,798.713 2305.86,857.323C2335.13,902.844 2373.94,941.657 2419.46,970.928C2478.07,1008.62 2547.8,1030.49 2622.6,1030.49C2764.54,1030.49 2879.78,1145.73 2879.78,1287.67C2879.78,1429.61 2764.54,1544.85 2622.6,1544.85C2547.8,1544.85 2478.07,1566.72 2419.46,1604.41C2373.94,1633.68 2335.13,1672.49 2305.86,1718.01C2268.17,1776.62 2246.3,1846.35 2246.3,1921.15C2246.3,2063.09 2131.06,2178.33 1989.12,2178.33C1847.17,2178.33 1731.93,2063.09 1731.93,1921.15C1731.93,1779.2 1847.17,1663.97 1989.12,1663.97C2063.91,1663.97 2133.64,1642.1 2192.25,1604.41C2237.77,1575.14 2276.59,1536.32 2305.86,1490.8C2343.54,1432.19 2365.41,1362.46 2365.41,1287.67C2365.41,1212.87 2343.54,1143.14 2305.86,1084.53C2276.59,1039.01 2237.77,1000.2 2192.25,970.928C2133.64,933.24 2063.91,911.371 1989.12,911.371C1914.32,911.371 1844.59,933.24 1785.98,970.928C1740.46,1000.2 1701.65,1039.01 1672.38,1084.53C1634.69,1143.14 1612.82,1212.87 1612.82,1287.67C1612.82,1429.61 1497.58,1544.85 1355.64,1544.85C1213.69,1544.85 1098.46,1429.61 1098.46,1287.67C1098.46,1145.73 1213.69,1030.49 1355.64,1030.49C1430.43,1030.49 1500.16,1008.62 1558.77,970.928C1604.29,941.657 1643.11,902.844 1672.38,857.323C1710.07,798.713 1731.93,728.985 1731.93,654.189Z" style="fill:rgb(0,41,102);"/>
                </g>
            </g>
        </g>
    </g>
</svg>
